<?xml version="1.0" encoding="UTF-8"?>
<svg width="62px" height="86px" viewBox="0 0 62 86" version="1.1" xmlns="http://www.w3.org/2000/svg" xmlns:xlink="http://www.w3.org/1999/xlink">
    <title>Artboard</title>
    <g id="Artboard" stroke="none" stroke-width="1" fill="none" fill-rule="evenodd">
        <g id="Group-6-Copy" transform="translate(3.000000, 0.000000)">
            <ellipse id="Oval" stroke="#D8D8D8" stroke-width="5" cx="28" cy="76" rx="28" ry="7"></ellipse>
            <path d="M28.5,0 C42.5832611,0 54,11.7525253 54,26.25 C54,30.2758976 53.1195944,34.0901176 51.546166,37.4997657 L51.5714286,37.5 L51.4646018,37.6748358 C50.6136455,39.484068 49.56687,41.1775135 48.3526166,42.7259975 L28.4707168,75 L8.60838759,42.6761442 C7.41115495,41.1417628 6.37800321,39.4659233 5.53634114,37.6768404 L5.42857143,37.5 L5.45383399,37.4997657 C3.88040562,34.0901176 3,30.2758976 3,26.25 C3,11.7525253 14.4167389,0 28.5,0 Z M28.5,11.25 C20.4524222,11.25 13.9285714,17.9657288 13.9285714,26.25 C13.9285714,34.5342712 20.4524222,41.25 28.5,41.25 C36.5475778,41.25 43.0714286,34.5342712 43.0714286,26.25 C43.0714286,17.9657288 36.5475778,11.25 28.5,11.25 Z" id="Combined-Shape" fill="#D56651"></path>
        </g>
    </g>
</svg>