<?xml version="1.0" encoding="UTF-8"?>
<svg width="39px" height="39px" viewBox="0 0 39 39" version="1.1" xmlns="http://www.w3.org/2000/svg" xmlns:xlink="http://www.w3.org/1999/xlink">
    <title>Combined Shape</title>
    <g id="Page-1" stroke="none" stroke-width="1" fill="none" fill-rule="evenodd">
        <g id="Home" transform="translate(-323.000000, -4451.000000)" fill="#FFFFFF">
            <g id="Group-11" transform="translate(0.000000, 4053.000000)">
                <path d="M342.5,398 C353.269553,398 362,406.730447 362,417.5 C362,428.269553 353.269553,437 342.5,437 C331.730447,437 323,428.269553 323,417.5 C323,406.730447 331.730447,398 342.5,398 Z M344.070247,407.12766 C341.163429,407.12766 339.284916,409.107446 339.284916,412.17169 L339.284916,414.497326 L336.683434,414.497326 C336.458635,414.497326 336.276596,414.684537 336.276596,414.915458 L336.276596,418.28504 C336.276596,418.515961 336.458843,418.702959 336.683434,418.702959 L339.284916,418.702959 L339.284916,427.205485 C339.284916,427.436407 339.466955,427.623404 339.691754,427.623404 L343.085948,427.623404 C343.310747,427.623404 343.492786,427.436193 343.492786,427.205485 L343.492786,418.702959 L346.534525,418.702959 C346.759324,418.702959 346.941363,418.515961 346.941363,418.28504 L346.942609,414.915458 C346.942609,414.804582 346.899641,414.698396 346.823463,414.61993 C346.747285,414.541463 346.643499,414.497326 346.535563,414.497326 L343.492786,414.497326 L343.492786,412.525855 C343.492786,411.578287 343.712603,411.097254 344.914229,411.097254 L346.657199,411.096614 C346.88179,411.096614 347.06383,410.909403 347.06383,410.678695 L347.06383,407.549843 C347.06383,407.319348 346.881998,407.132351 346.657614,407.131924 L344.070247,407.12766 Z" id="Combined-Shape"></path>
            </g>
        </g>
    </g>
</svg>