<?xml version="1.0" encoding="utf-8"?>
<!-- Generator: Adobe Illustrator 24.2.1, SVG Export Plug-In . SVG Version: 6.00 Build 0)  -->
<svg version="1.1" id="Layer_1" xmlns="http://www.w3.org/2000/svg" xmlns:xlink="http://www.w3.org/1999/xlink" x="0px" y="0px"
	 viewBox="0 0 58 58" style="enable-background:new 0 0 58 58;" xml:space="preserve">
<style type="text/css">
	.st0{opacity:0.4982;fill-rule:evenodd;clip-rule:evenodd;fill:#128D9D;enable-background:new    ;}
	.st1{enable-background:new    ;}
	.st2{fill:#FFFFFF;}
</style>
<g id="Commonly-Asked-Questions" transform="translate(-250.000000, -1075.000000)">
	<g id="Group-Copy-4" transform="translate(250.000000, 1075.000000)">
		<circle id="Oval" class="st0" cx="29" cy="29" r="29"/>
		<g class="st1">
			<path class="st2" d="M26.4,32.4c0-1.1,0.2-2,0.7-2.8c0.5-0.8,1.1-1.7,2-2.7c0.7-0.7,1.1-1.4,1.4-1.8c0.3-0.5,0.4-1,0.4-1.5
				c0-0.7-0.2-1.3-0.7-1.8s-1.1-0.6-1.8-0.6c-0.6,0-1.2,0.1-1.7,0.4c-0.5,0.3-1.1,0.7-1.6,1.2l-2.6-2.4c0.8-1,1.8-1.7,2.9-2.3
				c1.1-0.6,2.3-0.8,3.6-0.8c2,0,3.5,0.5,4.7,1.5c1.2,1,1.8,2.5,1.8,4.4c0,0.9-0.2,1.8-0.6,2.5s-1,1.5-1.9,2.5
				c-0.8,0.9-1.4,1.7-1.8,2.3c-0.4,0.7-0.6,1.4-0.6,2.2c0,0.2,0,0.4,0,0.5h-4.2C26.4,32.9,26.4,32.6,26.4,32.4z M26.5,40.8
				c-0.6-0.6-0.8-1.3-0.8-2.2s0.3-1.6,0.8-2.2c0.6-0.6,1.3-0.9,2.1-0.9c0.8,0,1.5,0.3,2.1,0.9s0.8,1.3,0.8,2.2s-0.3,1.6-0.8,2.2
				c-0.6,0.6-1.3,0.9-2.1,0.9C27.7,41.7,27,41.4,26.5,40.8z"/>
		</g>
	</g>
</g>
</svg>
