<?xml version="1.0" encoding="UTF-8"?>
<svg width="1900px" height="800px" viewBox="0 0 1900 800" version="1.1" xmlns="http://www.w3.org/2000/svg" xmlns:xlink="http://www.w3.org/1999/xlink">
    <title>Artboard Copy 2</title>
    <defs>
        <linearGradient x1="100%" y1="53.6614321%" x2="0%" y2="53.6614321%" id="linearGradient-1">
            <stop stop-color="#1C8795" stop-opacity="0.804004589" offset="0%"></stop>
            <stop stop-color="#1A5E9C" offset="100%"></stop>
        </linearGradient>
        <linearGradient x1="50%" y1="100%" x2="50%" y2="23.7993289%" id="linearGradient-2">
            <stop stop-color="#FFB402" offset="0%"></stop>
            <stop stop-color="#C44740" offset="100%"></stop>
        </linearGradient>
    </defs>
    <g id="Artboard-Copy-2" stroke="none" stroke-width="1" fill="none" fill-rule="evenodd">
        <path d="M1092.00484,161.571878 C1035.61316,243.072985 1002.49635,341.903716 1002.49635,448.501525 C1002.49635,585.135527 1056.75736,709.091733 1144.9053,800.000947 L-2.27373675e-13,800 L-2.27373675e-13,-5.68434189e-14 L1202.17863,-0.00140257908 C1161.26672,54.6079485 1121.89156,110.975412 1092.00484,161.571878 Z M1900,766.2737 L1899.99307,800 L1870.08371,800.000947 C1880.54439,789.212585 1890.52783,777.958821 1900,766.2737 Z M1899.99307,-5.68434189e-14 L1899.99572,130.961868 C1896.68582,126.877005 1893.31364,122.844655 1889.88065,118.866255 C1862.08387,80.9018026 1829.5576,40.1861485 1795.95402,-0.000466909068 L1899.99307,-5.68434189e-14 Z" id="Combined-Shape" fill="url(#linearGradient-1)"></path>
        <path d="M1413.54916,-259.516149 C1450.65288,-305.28076 1519.93447,-307.049634 1559.32806,-263.240093 C1559.32806,-263.240093 1769.43607,-46.4932557 1890.26614,118.371063 C1966.68358,206.841331 2013,321.990998 2013,448.006601 C2013,726.916703 1786.67659,953 1507.5,953 C1228.32341,953 1002,726.916703 1002,448.006601 C1002,341.408706 1035.14972,242.577893 1091.59745,161.07672 C1195.40001,-14.4806375 1413.54916,-259.516149 1413.54916,-259.516149 Z M1428.45309,-152.861473 C1428.45309,-152.861473 1243.74917,55.261638 1155.86094,204.372855 C1108.06742,273.596608 1080,357.539446 1080,448.079325 C1080,684.974123 1271.62497,877 1508,877 C1744.37503,877 1936,684.974123 1936,448.079325 C1936,341.046841 1896.78451,243.243438 1832.08291,168.100422 C1729.77772,28.0714335 1551.88212,-156.024438 1551.88212,-156.024438 C1518.5281,-193.234465 1459.86832,-191.732056 1428.45309,-152.861473 Z" id="Combined-Shape" fill="url(#linearGradient-2)" opacity="0.75"></path>
    </g>
</svg>