<?xml version="1.0" encoding="UTF-8"?>
<svg width="39px" height="39px" viewBox="0 0 39 39" version="1.1" xmlns="http://www.w3.org/2000/svg" xmlns:xlink="http://www.w3.org/1999/xlink">
    <title>Combined Shape</title>
    <g id="Page-1" stroke="none" stroke-width="1" fill="none" fill-rule="evenodd">
        <g id="Home" transform="translate(-434.000000, -4452.000000)" fill="#FFFFFF">
            <g id="Group-11" transform="translate(0.000000, 4053.000000)">
                <path d="M453.5,399 C464.269553,399 473,407.730447 473,418.5 C473,429.269553 464.269553,438 453.5,438 C442.730447,438 434,429.269553 434,418.5 C434,407.730447 442.730447,399 453.5,399 Z M457.389628,408.12766 L449.610372,408.12766 L449.377893,408.131752 C445.905775,408.254195 443.12766,411.108439 443.12766,414.610372 L443.12766,414.610372 L443.12766,422.389628 L443.131752,422.622107 C443.254195,426.094225 446.108439,428.87234 449.610372,428.87234 L449.610372,428.87234 L457.389628,428.87234 L457.622107,428.868248 C461.094225,428.745805 463.87234,425.891561 463.87234,422.389628 L463.87234,422.389628 L463.87234,414.610372 L463.868248,414.377893 C463.745805,410.905775 460.891561,408.12766 457.389628,408.12766 L457.389628,408.12766 Z M457.389628,410.072473 C459.891955,410.072473 461.927527,412.108045 461.927527,414.610372 L461.927527,414.610372 L461.927527,422.389628 L461.922578,422.602933 C461.810827,425.006611 459.82046,426.927527 457.389628,426.927527 L457.389628,426.927527 L449.610372,426.927527 L449.397067,426.922578 C446.993389,426.810827 445.072473,424.82046 445.072473,422.389628 L445.072473,422.389628 L445.072473,414.610372 L445.077422,414.397067 C445.189173,411.993389 447.17954,410.072473 449.610372,410.072473 L449.610372,410.072473 Z M454.018617,413.659574 C451.154555,413.659574 448.832447,415.981682 448.832447,418.845745 C448.832447,421.709807 451.154555,424.031915 454.018617,424.031915 C456.88268,424.031915 459.204787,421.709807 459.204787,418.845745 C459.204787,415.981682 456.88268,413.659574 454.018617,413.659574 Z M454.018617,415.604388 C455.805253,415.604388 457.259973,417.057812 457.259973,418.845745 C457.259973,420.63238 455.805253,422.087101 454.018617,422.087101 C452.231981,422.087101 450.777261,420.63238 450.777261,418.845745 C450.777261,417.057812 452.231981,415.604388 454.018617,415.604388 Z M459.031915,412.276596 C458.650016,412.276596 458.340426,412.586186 458.340426,412.968085 C458.340426,413.349984 458.650016,413.659574 459.031915,413.659574 C459.413814,413.659574 459.723404,413.349984 459.723404,412.968085 C459.723404,412.586186 459.413814,412.276596 459.031915,412.276596 Z" id="Combined-Shape"></path>
            </g>
        </g>
    </g>
</svg>