<?xml version="1.0" encoding="UTF-8"?>
<svg width="19px" height="16px" viewBox="0 0 19 16" version="1.1" xmlns="http://www.w3.org/2000/svg" xmlns:xlink="http://www.w3.org/1999/xlink">
    <title>email-84</title>
    <g id="Page-1" stroke="none" stroke-width="1" fill="none" fill-rule="evenodd">
        <g id="Home" transform="translate(-323.000000, -4274.000000)" fill="#FFFFFF" fill-rule="nonzero">
            <g id="Group-11" transform="translate(0.000000, 4053.000000)">
                <g id="Group-21" transform="translate(323.000000, 218.000000)">
                    <g id="email-84" transform="translate(0.000000, 3.000000)">
                        <path d="M18.2083333,0 L0.791666667,0 C0.316666667,0 0,0.32 0,0.8 L0,15.2 C0,15.68 0.316666667,16 0.791666667,16 L18.2083333,16 C18.6833333,16 19,15.68 19,15.2 L19,0.8 C19,0.32 18.6833333,0 18.2083333,0 Z M16.3875,3.84 L10.0541667,9.44 C9.89583333,9.52 9.65833333,9.6 9.5,9.6 C9.34166667,9.6 9.10416667,9.52 8.94583333,9.44 L2.6125,3.84 C2.29583333,3.52 2.21666667,3.04 2.53333333,2.72 C2.85,2.4 3.325,2.32 3.64166667,2.64 L9.42083333,7.76 L15.2,2.64 C15.5166667,2.32 15.9916667,2.4 16.3083333,2.72 C16.7041667,3.04 16.7041667,3.52 16.3875,3.84 Z" id="Shape"></path>
                    </g>
                </g>
            </g>
        </g>
    </g>
</svg>