<?xml version="1.0" encoding="utf-8"?>
<!-- Generator: Adobe Illustrator 24.2.1, SVG Export Plug-In . SVG Version: 6.00 Build 0)  -->
<svg version="1.1" id="Layer_1" xmlns="http://www.w3.org/2000/svg" xmlns:xlink="http://www.w3.org/1999/xlink" x="0px" y="0px"
	 viewBox="0 0 45 57" style="enable-background:new 0 0 45 57;" xml:space="preserve">
<style type="text/css">
	.st0{fill:url(#SVGID_1_);}
	.st1{fill:url(#SVGID_2_);}
	.st2{fill:url(#SVGID_3_);}
</style>
<g>
	<linearGradient id="SVGID_1_" gradientUnits="userSpaceOnUse" x1="13.7576" y1="55.6642" x2="13.7576" y2="24.8519">
		<stop  offset="0" style="stop-color:#FFC100"/>
		<stop  offset="0.2299" style="stop-color:#FFBC00"/>
		<stop  offset="0.4924" style="stop-color:#FFAE00"/>
		<stop  offset="0.7697" style="stop-color:#FF9800"/>
		<stop  offset="1" style="stop-color:#FF7F00"/>
	</linearGradient>
	<path class="st0" d="M8.1,33.6c0-1.3,0.3-2.7,0.8-4.2l-5.4-7.8C1.4,25.8,0,30.3,0,34.6C0,47,10.1,57,22.5,57c1.7,0,3.4-0.2,5-0.6
		l-5.9-8.5C14.1,47.5,8.1,41.2,8.1,33.6z"/>
	<linearGradient id="SVGID_2_" gradientUnits="userSpaceOnUse" x1="20.6464" y1="25.107" x2="20.6464" y2="0.45">
		<stop  offset="0" style="stop-color:#D1313F"/>
		<stop  offset="1" style="stop-color:#9F3192"/>
	</linearGradient>
	<path class="st1" d="M23.8,0.8c-1.2-1.1-3-1-4.1,0.1C16,4.4,8.1,12.5,3.6,21.6l5.4,7.8c3-8.3,13-18.6,13-18.6c0,0,2.5,2.2,5.4,5.4
		h10.3C32.9,9.3,26.9,3.6,23.8,0.8z"/>
	<linearGradient id="SVGID_3_" gradientUnits="userSpaceOnUse" x1="33.3297" y1="19.8973" x2="33.3297" y2="58.9703">
		<stop  offset="7.526188e-04" style="stop-color:#1C8D94"/>
		<stop  offset="0.2383" style="stop-color:#1C8795"/>
		<stop  offset="0.5611" style="stop-color:#1C7598"/>
		<stop  offset="0.9314" style="stop-color:#1C599E"/>
		<stop  offset="1" style="stop-color:#1C539F"/>
	</linearGradient>
	<path class="st2" d="M37.7,16.2H27.4c4.3,4.7,9.5,11.6,9.5,17.4c0,2.9-0.9,5.6-2.3,7.8c-2.6,3.9-7,6.5-12.1,6.5c-0.3,0-0.6,0-0.8,0
		l5.9,8.5c7.8-1.8,14-7.5,16.4-15c0.7-2.2,1.1-4.5,1.1-6.9C45,28.4,41.8,21.9,37.7,16.2z"/>
</g>
</svg>
