<?xml version="1.0" encoding="utf-8"?>
<!-- Generator: Adobe Illustrator 24.2.1, SVG Export Plug-In . SVG Version: 6.00 Build 0)  -->
<svg version="1.1" id="Layer_1" xmlns="http://www.w3.org/2000/svg" xmlns:xlink="http://www.w3.org/1999/xlink" x="0px" y="0px"
	 viewBox="0 0 215 138" style="enable-background:new 0 0 215 138;" xml:space="preserve">
<style type="text/css">
	.st0{fill:url(#SVGID_1_);}
	.st1{fill:url(#SVGID_2_);}
	.st2{fill:url(#SVGID_3_);}
	.st3{fill:#128D9D;}
</style>
<g>
	<g>
		<linearGradient id="SVGID_1_" gradientUnits="userSpaceOnUse" x1="96.0352" y1="98.4994" x2="53.9455" y2="121.5974">
			<stop  offset="7.526188e-04" style="stop-color:#1C8D94"/>
			<stop  offset="0.2383" style="stop-color:#1C8795"/>
			<stop  offset="0.5611" style="stop-color:#1C7598"/>
			<stop  offset="0.9314" style="stop-color:#1C599E"/>
			<stop  offset="1" style="stop-color:#1C539F"/>
		</linearGradient>
		<path class="st0" d="M51.4,110c9.4,0,19.2-3.4,25-11.3c0.3,0,23.6,0,23.6,0c-6.8,15.4-22.3,26.4-37.4,29.8l-12.8-18.6
			C50.3,109.9,50.8,110,51.4,110z"/>
		
			<linearGradient id="SVGID_2_" gradientUnits="userSpaceOnUse" x1="280.0296" y1="125.145" x2="280.0296" y2="79.6375" gradientTransform="matrix(-1 0 0 1 311.3392 0)">
			<stop  offset="0" style="stop-color:#FFC100"/>
			<stop  offset="0.2299" style="stop-color:#FFBC00"/>
			<stop  offset="0.4924" style="stop-color:#FFAE00"/>
			<stop  offset="0.7697" style="stop-color:#FF9800"/>
			<stop  offset="1" style="stop-color:#FF7F00"/>
		</linearGradient>
		<path class="st1" d="M0,77c0-3.3,0.5-7,1.5-10.8c0.7-2.7,1.6-5.4,2.7-8c1.2-2.9,2.6-5.8,4.1-8.7l13.1,19.1
			c-0.3,0.8-0.5,1.6-0.7,2.4l0,0.1c-0.5,2.1-0.8,4-0.9,5.7l0,0.6l0,1.1c0,16.1,12.2,29.4,27.8,31.3c0.7,0.1,1.5,0.1,2.2,0.1
			l12.8,18.6c-0.1,0-0.2,0.1-0.4,0.1c-3.5,0.8-7.1,1.2-10.9,1.2C23,129.7,0,106.7,0,78.5c0-0.3,0-0.6,0-0.8C0,77.4,0,77.2,0,77z"/>
		<linearGradient id="SVGID_3_" gradientUnits="userSpaceOnUse" x1="48.4917" y1="49.7384" x2="48.4917" y2="1.6343">
			<stop  offset="0" style="stop-color:#D1313F"/>
			<stop  offset="1" style="stop-color:#9F3192"/>
		</linearGradient>
		<path class="st2" d="M88.7,37.8C77.9,24.2,58.2,4.2,57.4,3.6L55.8,2c-2.9-2.7-7.5-2.7-10.4,0.1l-1.6,1.6c-1,1-21.1,20.7-33.6,42.4
			v0c-0.7,1.1-1.3,2.3-1.9,3.5l13.1,19.1c0.3-0.9,0.6-1.8,1-2.6l0.1-0.2c0.8-2.1,1.9-4.3,3-6.4C32.3,46.3,43.7,32.9,50.9,25
			c1.7,1.7,7.9,8.6,11.7,12.8H88.7z"/>
	</g>
	<g>
		<g>
			<path class="st3" d="M79.8,63.1c0,8.4-5.3,13.2-14.6,13.2h-7.6v12.9h-7.1V49.9h14.7C74.4,49.9,79.8,54.7,79.8,63.1z M72.7,63.1
				c0-4-1.4-6.7-8.1-6.7h-7.1v13.4h7.1C71.3,69.9,72.7,67.1,72.7,63.1z"/>
			<path class="st3" d="M82.7,89.2V48.6h7.1v40.6H82.7z"/>
			<path class="st3" d="M116.9,71.8v8c0,4.8-3.2,9.9-12.4,9.9c-9.3,0-12.6-5.2-12.6-10.1c0-2.2,0.9-9.3,12.7-9.3
				c1.8,0,3.6,0.2,5.2,0.4c0-3.2-1.7-5.5-6.3-5.5c-3.5,0-6.4,0.6-8.6,1.5V61c2.5-1,5.5-1.7,9-1.7C112.2,59.3,116.9,63.7,116.9,71.8z
				 M109.8,75.2c-1.2-0.2-2.7-0.4-4.3-0.4c-4.8,0-6.7,1.4-6.7,3.8c0,3.1,1.8,4.7,5.6,4.7c4,0,5.4-1.8,5.4-4.5V75.2z"/>
			<path class="st3" d="M140.1,81.1c0,4.9-4.3,8.6-11,8.6c-3.7,0-6.9-1-9.3-2.4v-6.3c2.1,1.4,5,2.6,8.3,2.6c4.5,0,4.9-1.2,4.9-2.8
				c0-4.8-14.1-2-14.1-12.2c0-6.2,5.1-9.2,10.9-9.2c3.1,0,5.8,0.8,8,2.1v5.4c-1.8-0.8-4-1.4-6.8-1.4c-3,0-5.1,0.6-5.1,2.5
				C126.1,72.4,140.1,69,140.1,81.1z"/>
			<path class="st3" d="M186.2,71.5v17.7h-7.1V71c0-3.4-1.1-5.7-6.7-5.7c-2.2,0-4.3,0.3-6,0.7c0,0,1.2,1.4,1.2,5.5v17.7h-7V70.9
				c0-3.2-1.1-5.4-6.6-5.4c-1.8,0-3.4,0.2-4.9,0.5v23.3H142V62.6c0.2-0.1,5.8-3.3,13-3.3c3.2,0,5.9,0.8,8,2.2
				c2.4-0.9,6.1-2.2,10.6-2.2C181.5,59.3,186.2,63.8,186.2,71.5z"/>
			<path class="st3" d="M212.9,71.8v8c0,4.8-3.2,9.9-12.4,9.9c-9.3,0-12.6-5.2-12.6-10.1c0-2.2,0.9-9.3,12.7-9.3
				c1.8,0,3.6,0.2,5.2,0.4c0-3.2-1.7-5.5-6.3-5.5c-3.5,0-6.4,0.6-8.6,1.5V61c2.5-1,5.5-1.7,9-1.7C208.3,59.3,212.9,63.7,212.9,71.8z
				 M205.8,75.2c-1.2-0.2-2.7-0.4-4.3-0.4c-4.8,0-6.7,1.4-6.7,3.8c0,3.1,1.8,4.7,5.6,4.7c4,0,5.4-1.8,5.4-4.5V75.2z"/>
		</g>
	</g>
	<g>
		<path class="st3" d="M140,99v38.6h-7.1v-16h-16.8v16H109V99h7.1v16h16.8V99H140z"/>
		<path class="st3" d="M167.9,129.8v5.6c-2.7,1.4-6.4,2.6-11.1,2.6c-5.9,0-13.7-2.3-13.7-14.6c0-8.6,3.6-15.3,13.2-15.3
			c9.2,0,13.2,6.8,13.2,14c0,1.3,0,2.4-0.1,3.6h-19c0.4,5.6,4.1,6.3,7.5,6.3C162,132,165.4,130.9,167.9,129.8z M150.3,120.9h11.9
			c-0.4-3.6-2.2-7.1-6-7.1C152.7,113.8,150.7,115.8,150.3,120.9z"/>
		<path class="st3" d="M187.4,108.2v6c-4,0.1-6.6,0.7-7.6,1v22.3h-7.1v-26.3C172.7,111.3,178.9,108.4,187.4,108.2z"/>
		<path class="st3" d="M215,123.1c0,9.6-5,14.9-14,14.9c-9,0-14-5.3-14-14.9c0-9.6,5-14.9,14-14.9C210,108.3,215,113.5,215,123.1z
			 M207.9,123.1c0-7.6-2.7-9.1-6.9-9.1c-4.2,0-6.9,1.5-6.9,9.1c0,7.6,2.7,9.1,6.9,9.1C205.2,132.3,207.9,130.8,207.9,123.1z"/>
	</g>
</g>
</svg>
