<?xml version="1.0" encoding="UTF-8"?>
<svg width="39px" height="39px" viewBox="0 0 39 39" version="1.1" xmlns="http://www.w3.org/2000/svg" xmlns:xlink="http://www.w3.org/1999/xlink">
    <title>Combined Shape</title>
    <g id="Page-1" stroke="none" stroke-width="1" fill="none" fill-rule="evenodd">
        <g id="Home" transform="translate(-378.000000, -4452.000000)" fill="#FFFFFF">
            <g id="Group-11" transform="translate(0.000000, 4053.000000)">
                <path d="M397.5,399 C408.269553,399 417,407.730447 417,418.5 C417,429.269553 408.269553,438 397.5,438 C386.730447,438 378,429.269553 378,418.5 C378,407.730447 386.730447,399 397.5,399 Z M401.170305,410.617021 C399.004145,410.617021 397.260243,412.394558 397.260243,414.573668 C397.260243,414.887209 397.286485,415.188691 397.350898,415.475701 C394.09808,415.315313 391.219807,413.739166 389.286247,411.338166 C388.94868,411.930276 388.750672,412.608007 388.750672,413.337593 C388.750672,414.707526 389.448471,415.921894 390.488609,416.62495 C389.859993,416.612891 389.243306,416.428384 388.720851,416.137755 L388.720851,416.181169 L388.720851,416.181169 C388.720851,418.103416 390.077086,419.700064 391.85558,420.067872 C391.537097,420.155904 391.189987,420.198112 390.829755,420.198112 C390.579263,420.198112 390.326386,420.183641 390.089015,420.13058 C390.595963,421.697079 392.034503,422.848739 393.745005,422.886123 C392.413819,423.938897 390.723594,424.573215 388.89381,424.573215 C388.572941,424.573215 388.265194,424.558744 387.957447,424.518948 C389.690613,425.648902 391.744648,426.294073 393.959713,426.294073 C401.159569,426.294073 405.095872,420.264438 405.095872,415.03795 C405.095872,414.86309 405.089908,414.694261 405.081559,414.526637 C405.858084,413.969498 406.510556,413.273679 407.042553,412.472943 C406.332826,412.78769 405.576578,412.996315 404.788125,413.097613 C405.599242,412.608007 406.218315,411.838625 406.509363,410.911267 C405.753116,411.367108 404.918142,411.68909 404.028299,411.868774 C403.310222,411.095774 402.286783,410.617021 401.170305,410.617021 Z" id="Combined-Shape"></path>
            </g>
        </g>
    </g>
</svg>